<svg xmlns="http://www.w3.org/2000/svg" viewBox="0 0 1200 675" role="img">
  <defs>
    <linearGradient id="bg" x1="0" y1="0" x2="1" y2="1"><stop offset="0" stop-color="#f8fafc"/><stop offset="1" stop-color="#e8eef6"/></linearGradient>
    <linearGradient id="steel" x1="0" y1="0" x2="1" y2="1"><stop offset="0" stop-color="#53657b"/><stop offset="0.5" stop-color="#15243a"/><stop offset="1" stop-color="#718197"/></linearGradient>
  </defs>
  <rect width="1200" height="675" fill="url(#bg)"/>
  <path d="M0 565 C280 505 430 620 715 550 C910 502 1060 518 1200 470 V675 H0Z" fill="#dce5f0"/>
  <circle cx="1010" cy="115" r="78" fill="#ff6a00" opacity=".11"/>

  <g transform="translate(155 90)">
    <path d="M190 360L650 95l330 150-460 265z" fill="#63758b" stroke="#0f1b33" stroke-width="10"/>
    <path d="M190 360v150l330 150V510z" fill="#26374d" stroke="#0f1b33" stroke-width="10"/>
    <path d="M520 510l460-265v150L520 660z" fill="#718297" stroke="#0f1b33" stroke-width="10"/>
    <path d="M270 370l235 107 330-190-115-52-215 123-120-55z" fill="#eef3f8" stroke="#ff6a00" stroke-width="12"/>
  </g></svg>
