<svg xmlns="http://www.w3.org/2000/svg" width="1200" height="675" viewBox="0 0 1200 675" fill="none">
<defs>
  <linearGradient id="bg" x1="0" y1="0" x2="1200" y2="675" gradientUnits="userSpaceOnUse">
    <stop stop-color="#0F172A"/>
    <stop offset="1" stop-color="#1E293B"/>
  </linearGradient>
  <linearGradient id="steel" x1="0" y1="0" x2="1" y2="1">
    <stop offset="0" stop-color="#F8FAFC"/>
    <stop offset="0.2" stop-color="#CBD5E1"/>
    <stop offset="0.5" stop-color="#94A3B8"/>
    <stop offset="0.8" stop-color="#E2E8F0"/>
    <stop offset="1" stop-color="#64748B"/>
  </linearGradient>
  <filter id="shadow" x="-30%" y="-30%" width="160%" height="160%"><feDropShadow dx="0" dy="16" stdDeviation="18" flood-color="#020617" flood-opacity="0.35"/></filter>
</defs>
<rect width="1200" height="675" rx="36" fill="url(#bg)"/>
<g opacity="0.08" stroke="#E2E8F0">
  <path d="M60 70H1140"/><path d="M60 150H1140"/><path d="M60 230H1140"/><path d="M60 310H1140"/><path d="M60 390H1140"/><path d="M60 470H1140"/><path d="M60 550H1140"/>
  <path d="M120 40V635"/><path d="M240 40V635"/><path d="M360 40V635"/><path d="M480 40V635"/><path d="M600 40V635"/><path d="M720 40V635"/><path d="M840 40V635"/><path d="M960 40V635"/><path d="M1080 40V635"/>
</g>
<rect x="66" y="54" width="300" height="44" rx="22" fill="#1f293733" stroke="#FB923C"/>
<text x="92" y="83" fill="#FDBA74" font-size="24" font-family="Arial, Helvetica, sans-serif" font-weight="700">IDELEON • METAL</text>
<g filter="url(#shadow)" transform="translate(210 120)"><path d="M140 120H270V540H140Z" fill="url(#steel)"/><path d="M140 120H760V230H140Z" fill="#CBD5E1"/><path d="M140 430H760V540H140Z" fill="#94A3B8"/><path d="M760 230L880 300L880 410L760 430Z" fill="#CBD5E1"/><path d="M270 230H760V430H270Z" fill="#0F172A" opacity="0.28"/></g><text x="76" y="588" fill="#F8FAFC" font-size="46" font-family="Arial, Helvetica, sans-serif" font-weight="700">Швеллер</text>
<text x="78" y="624" fill="#CBD5E1" font-size="24" font-family="Arial, Helvetica, sans-serif">Горячекатаный швеллер серии П.</text>
<text x="1100" y="622" text-anchor="end" fill="#94A3B8" font-size="20" font-family="Arial, Helvetica, sans-serif">ГОСТ 8240-97</text></svg>