<svg xmlns="http://www.w3.org/2000/svg" viewBox="0 0 1200 675" role="img">
  <defs>
    <linearGradient id="bg" x1="0" y1="0" x2="1" y2="1"><stop offset="0" stop-color="#f8fafc"/><stop offset="1" stop-color="#e8eef6"/></linearGradient>
    <linearGradient id="steel" x1="0" y1="0" x2="1" y2="1"><stop offset="0" stop-color="#53657b"/><stop offset="0.5" stop-color="#15243a"/><stop offset="1" stop-color="#718197"/></linearGradient>
  </defs>
  <rect width="1200" height="675" fill="url(#bg)"/>
  <path d="M0 565 C280 505 430 620 715 550 C910 502 1060 518 1200 470 V675 H0Z" fill="#dce5f0"/>
  <circle cx="1010" cy="115" r="78" fill="#ff6a00" opacity=".11"/>

  <g transform="translate(130 110) rotate(-8 470 220)">
    <g fill="url(#steel)" stroke="#0f1b33" stroke-width="8">
      <rect x="90" y="170" width="760" height="72" rx="36"/>
      <rect x="125" y="275" width="760" height="72" rx="36"/>
      <rect x="65" y="380" width="760" height="72" rx="36"/>
    </g>
    <g stroke="#ff6a00" stroke-width="18" stroke-linecap="round">
      <path d="M140 166l35 80m80-80l35 80m80-80l35 80m80-80l35 80m80-80l35 80m80-80l35 80m80-80l35 80"/>
      <path d="M175 271l35 80m80-80l35 80m80-80l35 80m80-80l35 80m80-80l35 80m80-80l35 80m80-80l35 80"/>
      <path d="M115 376l35 80m80-80l35 80m80-80l35 80m80-80l35 80m80-80l35 80m80-80l35 80m80-80l35 80"/>
    </g>
  </g></svg>
