<svg xmlns="http://www.w3.org/2000/svg" width="1200" height="675" viewBox="0 0 1200 675" fill="none">
<defs>
  <linearGradient id="bg" x1="0" y1="0" x2="1200" y2="675" gradientUnits="userSpaceOnUse">
    <stop stop-color="#0F172A"/>
    <stop offset="1" stop-color="#1E293B"/>
  </linearGradient>
  <linearGradient id="steel" x1="0" y1="0" x2="1" y2="1">
    <stop offset="0" stop-color="#F8FAFC"/>
    <stop offset="0.2" stop-color="#CBD5E1"/>
    <stop offset="0.5" stop-color="#94A3B8"/>
    <stop offset="0.8" stop-color="#E2E8F0"/>
    <stop offset="1" stop-color="#64748B"/>
  </linearGradient>
  <filter id="shadow" x="-30%" y="-30%" width="160%" height="160%"><feDropShadow dx="0" dy="16" stdDeviation="18" flood-color="#020617" flood-opacity="0.35"/></filter>
</defs>
<rect width="1200" height="675" rx="36" fill="url(#bg)"/>
<g opacity="0.08" stroke="#E2E8F0">
  <path d="M60 70H1140"/><path d="M60 150H1140"/><path d="M60 230H1140"/><path d="M60 310H1140"/><path d="M60 390H1140"/><path d="M60 470H1140"/><path d="M60 550H1140"/>
  <path d="M120 40V635"/><path d="M240 40V635"/><path d="M360 40V635"/><path d="M480 40V635"/><path d="M600 40V635"/><path d="M720 40V635"/><path d="M840 40V635"/><path d="M960 40V635"/><path d="M1080 40V635"/>
</g>
<rect x="66" y="54" width="300" height="44" rx="22" fill="#1f293733" stroke="#FB923C"/>
<text x="92" y="83" fill="#FDBA74" font-size="24" font-family="Arial, Helvetica, sans-serif" font-weight="700">IDELEON • METAL</text>
<g filter="url(#shadow)"><g transform="translate(250 180) rotate(-12 350 110)"><rect x="0" y="70" width="700" height="72" rx="36" fill="url(#steel)"/><path d="M20 74C34 96 34 116 20 138" stroke="#475569" stroke-width="10" opacity="0.55"/><path d="M62 74C76 96 76 116 62 138" stroke="#475569" stroke-width="10" opacity="0.55"/><path d="M104 74C118 96 118 116 104 138" stroke="#475569" stroke-width="10" opacity="0.55"/><path d="M146 74C160 96 160 116 146 138" stroke="#475569" stroke-width="10" opacity="0.55"/><path d="M188 74C202 96 202 116 188 138" stroke="#475569" stroke-width="10" opacity="0.55"/><path d="M230 74C244 96 244 116 230 138" stroke="#475569" stroke-width="10" opacity="0.55"/><path d="M272 74C286 96 286 116 272 138" stroke="#475569" stroke-width="10" opacity="0.55"/><path d="M314 74C328 96 328 116 314 138" stroke="#475569" stroke-width="10" opacity="0.55"/><path d="M356 74C370 96 370 116 356 138" stroke="#475569" stroke-width="10" opacity="0.55"/><path d="M398 74C412 96 412 116 398 138" stroke="#475569" stroke-width="10" opacity="0.55"/><path d="M440 74C454 96 454 116 440 138" stroke="#475569" stroke-width="10" opacity="0.55"/><path d="M482 74C496 96 496 116 482 138" stroke="#475569" stroke-width="10" opacity="0.55"/><path d="M524 74C538 96 538 116 524 138" stroke="#475569" stroke-width="10" opacity="0.55"/><path d="M566 74C580 96 580 116 566 138" stroke="#475569" stroke-width="10" opacity="0.55"/><path d="M608 74C622 96 622 116 608 138" stroke="#475569" stroke-width="10" opacity="0.55"/><path d="M650 74C664 96 664 116 650 138" stroke="#475569" stroke-width="10" opacity="0.55"/><rect x="0" y="70" width="700" height="72" rx="36" stroke="#F8FAFC" stroke-opacity="0.45"/></g><circle cx="920" cy="188" r="68" fill="#0B1220" stroke="#FB923C" stroke-width="8"/><circle cx="920" cy="188" r="44" fill="url(#steel)"/><text x="920" y="196" text-anchor="middle" fill="#0F172A" font-size="26" font-family="Arial" font-weight="700">Ø</text></g><text x="76" y="588" fill="#F8FAFC" font-size="46" font-family="Arial, Helvetica, sans-serif" font-weight="700">Арматура</text>
<text x="78" y="624" fill="#CBD5E1" font-size="24" font-family="Arial, Helvetica, sans-serif">Рифлёный стальной стержень для монолитных конструкций.</text>
<text x="1100" y="622" text-anchor="end" fill="#94A3B8" font-size="20" font-family="Arial, Helvetica, sans-serif">ГОСТ 34028-2016</text></svg>