<svg xmlns="http://www.w3.org/2000/svg" width="1200" height="675" viewBox="0 0 1200 675" fill="none">
<defs>
  <linearGradient id="bg" x1="0" y1="0" x2="1200" y2="675" gradientUnits="userSpaceOnUse">
    <stop stop-color="#0F172A"/>
    <stop offset="1" stop-color="#1E293B"/>
  </linearGradient>
  <linearGradient id="steel" x1="0" y1="0" x2="1" y2="1">
    <stop offset="0" stop-color="#F8FAFC"/>
    <stop offset="0.2" stop-color="#CBD5E1"/>
    <stop offset="0.5" stop-color="#94A3B8"/>
    <stop offset="0.8" stop-color="#E2E8F0"/>
    <stop offset="1" stop-color="#64748B"/>
  </linearGradient>
  <filter id="shadow" x="-30%" y="-30%" width="160%" height="160%"><feDropShadow dx="0" dy="16" stdDeviation="18" flood-color="#020617" flood-opacity="0.35"/></filter>
</defs>
<rect width="1200" height="675" rx="36" fill="url(#bg)"/>
<g opacity="0.08" stroke="#E2E8F0">
  <path d="M60 70H1140"/><path d="M60 150H1140"/><path d="M60 230H1140"/><path d="M60 310H1140"/><path d="M60 390H1140"/><path d="M60 470H1140"/><path d="M60 550H1140"/>
  <path d="M120 40V635"/><path d="M240 40V635"/><path d="M360 40V635"/><path d="M480 40V635"/><path d="M600 40V635"/><path d="M720 40V635"/><path d="M840 40V635"/><path d="M960 40V635"/><path d="M1080 40V635"/>
</g>
<rect x="66" y="54" width="300" height="44" rx="22" fill="#1f293733" stroke="#FB923C"/>
<text x="92" y="83" fill="#FDBA74" font-size="24" font-family="Arial, Helvetica, sans-serif" font-weight="700">IDELEON • METAL</text>
<g filter="url(#shadow)" transform="translate(205 130)"><polygon points="240,120 760,120 860,196 340,196" fill="#CBD5E1"/><polygon points="240,120 240,358 340,434 340,196" fill="#94A3B8"/><polygon points="340,196 860,196 860,434 340,434" fill="url(#steel)"/><rect x="40" y="236" width="250" height="155" rx="8" fill="#E2E8F0" fill-opacity="0.12" stroke="#F8FAFC" stroke-width="16"/><rect x="88" y="275" width="154" height="77" rx="6" fill="#0F172A" stroke="#E2E8F0" stroke-width="14"/></g><text x="76" y="588" fill="#F8FAFC" font-size="46" font-family="Arial, Helvetica, sans-serif" font-weight="700">Труба прямоугольная</text>
<text x="78" y="624" fill="#CBD5E1" font-size="24" font-family="Arial, Helvetica, sans-serif">Профильная труба прямоугольного сечения.</text>
<text x="1100" y="622" text-anchor="end" fill="#94A3B8" font-size="20" font-family="Arial, Helvetica, sans-serif">B × H × t</text></svg>