<svg xmlns="http://www.w3.org/2000/svg" viewBox="0 0 1200 675" role="img">
  <defs>
    <linearGradient id="bg" x1="0" y1="0" x2="1" y2="1"><stop offset="0" stop-color="#f8fafc"/><stop offset="1" stop-color="#e8eef6"/></linearGradient>
    <linearGradient id="steel" x1="0" y1="0" x2="1" y2="1"><stop offset="0" stop-color="#53657b"/><stop offset="0.5" stop-color="#15243a"/><stop offset="1" stop-color="#718197"/></linearGradient>
  </defs>
  <rect width="1200" height="675" fill="url(#bg)"/>
  <path d="M0 565 C280 505 430 620 715 550 C910 502 1060 518 1200 470 V675 H0Z" fill="#dce5f0"/>
  <circle cx="1010" cy="115" r="78" fill="#ff6a00" opacity=".11"/>

  <g transform="translate(145 95)">
    <path d="M120 365L690 85l350 175-570 280z" fill="#8a99aa" stroke="#0f1b33" stroke-width="9"/>
    <path d="M105 410L675 130l350 175-570 280z" fill="#65758a" stroke="#0f1b33" stroke-width="9"/>
    <path d="M90 455L660 175l350 175-570 280z" fill="url(#steel)" stroke="#0f1b33" stroke-width="10"/>
    <path d="M90 455l350 175 570-280" fill="none" stroke="#ff6a00" stroke-width="12"/>
  </g></svg>
