<svg xmlns="http://www.w3.org/2000/svg" viewBox="0 0 1200 675" role="img">
  <defs>
    <linearGradient id="bg" x1="0" y1="0" x2="1" y2="1"><stop offset="0" stop-color="#f8fafc"/><stop offset="1" stop-color="#e8eef6"/></linearGradient>
    <linearGradient id="steel" x1="0" y1="0" x2="1" y2="1"><stop offset="0" stop-color="#53657b"/><stop offset="0.5" stop-color="#15243a"/><stop offset="1" stop-color="#718197"/></linearGradient>
  </defs>
  <rect width="1200" height="675" fill="url(#bg)"/>
  <path d="M0 565 C280 505 430 620 715 550 C910 502 1060 518 1200 470 V675 H0Z" fill="#dce5f0"/>
  <circle cx="1010" cy="115" r="78" fill="#ff6a00" opacity=".11"/>

  <g transform="translate(170 95)">
    <path d="M165 330L565 65l280 170-400 270z" fill="url(#steel)" stroke="#0f1b33" stroke-width="10"/>
    <path d="M165 330v190l280 150V505z" fill="#26374d" stroke="#0f1b33" stroke-width="10"/>
    <path d="M445 505l400-270v190L445 670z" fill="#66788e" stroke="#0f1b33" stroke-width="10"/>
    <path d="M235 355l210 112 310-210-210-125z" fill="#eef3f8" stroke="#ff6a00" stroke-width="12"/>
  </g></svg>
