<svg xmlns="http://www.w3.org/2000/svg" width="1200" height="675" viewBox="0 0 1200 675">
<defs><linearGradient id="b" x1="0" y1="0" x2="1" y2="1"><stop stop-color="#0d1a2e"/><stop offset="1" stop-color="#14243c"/></linearGradient><pattern id="g" width="36" height="36" patternUnits="userSpaceOnUse"><path d="M36 0H0V36" fill="none" stroke="#6e7f95" stroke-width="1" opacity=".12"/></pattern><linearGradient id="m" x1="0" y1="0" x2="1" y2="1"><stop stop-color="#fff"/><stop offset=".55" stop-color="#cbd2da"/><stop offset="1" stop-color="#8a95a2"/></linearGradient><marker id="a" markerWidth="10" markerHeight="10" refX="5" refY="5" orient="auto-start-reverse"><path d="M0,0 L10,5 L0,10z" fill="#ff6a00"/></marker></defs>
<rect width="1200" height="675" rx="34" fill="url(#b)"/><rect width="1200" height="675" rx="34" fill="url(#g)"/><rect x="28" y="28" width="1144" height="619" rx="26" fill="none" stroke="#ff6a00" stroke-width="2" opacity=".55"/>
<text x="80" y="82" font-family="Arial" font-size="30" font-weight="700" fill="#fff">СВОЙ РАЗМЕР</text><text x="80" y="118" font-family="Arial" font-size="18" fill="#aab8c8">ШИРИНА • ВЫСОТА • ЗАЗОР МЕЖДУ РЕЙКАМИ</text>
<g transform="translate(185 170)"><path d="M0 0v250h32V32h190v218h32V0z" fill="url(#m)" stroke="#fff" stroke-width="3"/><line x1="0" y1="305" x2="254" y2="305" stroke="#ff6a00" stroke-width="3" marker-start="url(#a)" marker-end="url(#a)"/><text x="127" y="350" text-anchor="middle" font-family="Arial" font-size="25" font-weight="700" fill="#fff">20–300 мм</text><line x1="-58" y1="0" x2="-58" y2="250" stroke="#ff6a00" stroke-width="3" marker-start="url(#a)" marker-end="url(#a)"/><text x="-90" y="125" transform="rotate(-90 -90 125)" text-anchor="middle" font-family="Arial" font-size="25" font-weight="700" fill="#fff">20–300 мм</text></g>
<g transform="translate(700 215)"><path d="M0 0v180h28V28h135v152h28V0z" fill="url(#m)"/><path d="M265 0v180h28V28h135v152h28V0z" fill="url(#m)"/><line x1="195" y1="230" x2="261" y2="230" stroke="#ff6a00" stroke-width="3" marker-start="url(#a)" marker-end="url(#a)"/><text x="228" y="270" text-anchor="middle" font-family="Arial" font-size="24" font-weight="700" fill="#fff">зазор ≥ 20 мм</text></g>
<line x1="100" y1="560" x2="1100" y2="560" stroke="#ff6a00" stroke-width="3"/><text x="600" y="605" text-anchor="middle" font-family="Arial" font-size="21" fill="#cbd5df">Для нестандартного модуля расход считается по ширине рейки + зазору</text>
</svg>