<svg xmlns="http://www.w3.org/2000/svg" width="1200" height="675" viewBox="0 0 1200 675">
<defs><linearGradient id="b" x1="0" y1="0" x2="1" y2="1"><stop stop-color="#0d1a2e"/><stop offset="1" stop-color="#14243c"/></linearGradient><pattern id="g" width="36" height="36" patternUnits="userSpaceOnUse"><path d="M36 0H0V36" fill="none" stroke="#6e7f95" stroke-width="1" opacity=".12"/></pattern><linearGradient id="m" x1="0" y1="0" x2="1" y2="1"><stop stop-color="#fff"/><stop offset=".55" stop-color="#cbd2da"/><stop offset="1" stop-color="#8a95a2"/></linearGradient></defs>
<rect width="1200" height="675" rx="34" fill="url(#b)"/><rect width="1200" height="675" rx="34" fill="url(#g)"/><rect x="28" y="28" width="1144" height="619" rx="26" fill="none" stroke="#ff6a00" stroke-width="2" opacity=".55"/>
<text x="80" y="82" font-family="Arial" font-size="30" font-weight="700" fill="#fff">СТАНДАРТНЫЕ ТИПОРАЗМЕРЫ</text><text x="80" y="118" font-family="Arial" font-size="18" fill="#aab8c8">ЛИНЕЙКА КУБООБРАЗНОЙ РЕЙКИ АЛБЕС</text>
<g transform="translate(115 175)">
<g><path d="M0 0v120h24V24h56v96h24V0z" fill="url(#m)"/><text x="52" y="155" text-anchor="middle" font-family="Arial" font-size="19" fill="#fff">25×35</text></g>
<g transform="translate(190 0)"><path d="M0 0v160h24V24h56v136h24V0z" fill="url(#m)"/><text x="52" y="195" text-anchor="middle" font-family="Arial" font-size="19" fill="#fff">30×50</text></g>
<g transform="translate(380 0)"><path d="M0 0v235h24V24h72v211h24V0z" fill="url(#m)"/><text x="60" y="270" text-anchor="middle" font-family="Arial" font-size="19" fill="#fff">30×110</text></g>
<g transform="translate(590 0)"><path d="M0 0v125h24V24h110v101h24V0z" fill="url(#m)"/><text x="79" y="160" text-anchor="middle" font-family="Arial" font-size="19" fill="#fff">75×50</text></g>
<g transform="translate(835 0)"><path d="M0 0v210h24V24h120v186h24V0z" fill="url(#m)"/><text x="84" y="245" text-anchor="middle" font-family="Arial" font-size="19" fill="#fff">80×100</text></g>
</g>
<line x1="100" y1="535" x2="1100" y2="535" stroke="#ff6a00" stroke-width="3"/><text x="600" y="585" text-anchor="middle" font-family="Arial" font-size="22" fill="#cbd5df">18 стандартных типоразмеров • выбор карточкой</text>
</svg>