<svg xmlns="http://www.w3.org/2000/svg" width="1600" height="900" viewBox="0 0 1600 900" fill="none"><rect width="1600" height="900" fill="#ffffff"/><rect x="24" y="24" width="1552" height="852" rx="24" fill="#ffffff" stroke="#d9e3ec" stroke-width="2"/><text x="80" y="90" fill="#12324a" font-size="40" font-family="Arial" font-weight="700">Схема потолочного каркаса</text><text x="80" y="130" fill="#6b7785" font-size="22" font-family="Arial">ППН по периметру, ПП внутри, подвесы и направление листов ГКЛ</text><rect x="120" y="190" width="1360" height="600" rx="24" fill="#f5f8fb" stroke="#d9e3ec"/><rect x="220" y="280" width="980" height="360" rx="10" fill="#ffffff" stroke="#12324a" stroke-width="10"/><rect x="220" y="280" width="980" height="26" rx="6" fill="#12324a"/><rect x="220" y="614" width="980" height="26" rx="6" fill="#12324a"/><rect x="220" y="280" width="26" height="360" rx="6" fill="#12324a"/><rect x="1174" y="280" width="26" height="360" rx="6" fill="#12324a"/><rect x="350" y="320" width="26" height="280" rx="6" fill="#2a6ea6"/><line x1="363" y1="250" x2="363" y2="320" stroke="#f28c28" stroke-width="4" stroke-dasharray="8 8"/><circle cx="363" cy="250" r="8" fill="#f28c28"/><line x1="363" y1="450" x2="363" y2="600" stroke="#f28c28" stroke-width="4" stroke-dasharray="8 8"/><circle cx="363" cy="450" r="8" fill="#f28c28"/><rect x="500" y="320" width="26" height="280" rx="6" fill="#2a6ea6"/><line x1="513" y1="250" x2="513" y2="320" stroke="#f28c28" stroke-width="4" stroke-dasharray="8 8"/><circle cx="513" cy="250" r="8" fill="#f28c28"/><line x1="513" y1="450" x2="513" y2="600" stroke="#f28c28" stroke-width="4" stroke-dasharray="8 8"/><circle cx="513" cy="450" r="8" fill="#f28c28"/><rect x="650" y="320" width="26" height="280" rx="6" fill="#2a6ea6"/><line x1="663" y1="250" x2="663" y2="320" stroke="#f28c28" stroke-width="4" stroke-dasharray="8 8"/><circle cx="663" cy="250" r="8" fill="#f28c28"/><line x1="663" y1="450" x2="663" y2="600" stroke="#f28c28" stroke-width="4" stroke-dasharray="8 8"/><circle cx="663" cy="450" r="8" fill="#f28c28"/><rect x="800" y="320" width="26" height="280" rx="6" fill="#2a6ea6"/><line x1="813" y1="250" x2="813" y2="320" stroke="#f28c28" stroke-width="4" stroke-dasharray="8 8"/><circle cx="813" cy="250" r="8" fill="#f28c28"/><line x1="813" y1="450" x2="813" y2="600" stroke="#f28c28" stroke-width="4" stroke-dasharray="8 8"/><circle cx="813" cy="450" r="8" fill="#f28c28"/><rect x="950" y="320" width="26" height="280" rx="6" fill="#2a6ea6"/><line x1="963" y1="250" x2="963" y2="320" stroke="#f28c28" stroke-width="4" stroke-dasharray="8 8"/><circle cx="963" cy="250" r="8" fill="#f28c28"/><line x1="963" y1="450" x2="963" y2="600" stroke="#f28c28" stroke-width="4" stroke-dasharray="8 8"/><circle cx="963" cy="450" r="8" fill="#f28c28"/><rect x="1100" y="320" width="26" height="280" rx="6" fill="#2a6ea6"/><line x1="1113" y1="250" x2="1113" y2="320" stroke="#f28c28" stroke-width="4" stroke-dasharray="8 8"/><circle cx="1113" cy="250" r="8" fill="#f28c28"/><line x1="1113" y1="450" x2="1113" y2="600" stroke="#f28c28" stroke-width="4" stroke-dasharray="8 8"/><circle cx="1113" cy="450" r="8" fill="#f28c28"/><text x="1240" y="300" fill="#12324a" font-size="24" font-family="Arial" font-weight="700">ППН 28×27 по периметру</text><text x="1240" y="360" fill="#2a6ea6" font-size="24" font-family="Arial" font-weight="700">ПП 60×27 внутри каркаса</text><text x="1240" y="420" fill="#f28c28" font-size="24" font-family="Arial" font-weight="700">Подвесы к основанию</text><path d="M 1260 312 H 1205" stroke="#12324a" stroke-width="6"/><path d="M 1260 372 H 1113" stroke="#2a6ea6" stroke-width="6"/><path d="M 1260 432 H 1108" stroke="#f28c28" stroke-width="6" stroke-dasharray="8 6"/><path d="M 280 690 H 720" stroke="#6b7785" stroke-width="5" marker-end="url(#arr3)"/><text x="285" y="675" fill="#6b7785" font-size="22" font-family="Arial">Направление раскладки листов ГКЛ</text><defs><marker id="arr3" markerWidth="12" markerHeight="12" refX="10" refY="6" orient="auto"><path d="M0,0 L12,6 L0,12 Z" fill="#6b7785"/></marker></defs><text x="120" y="835" fill="#6b7785" font-size="20" font-family="Arial">Схема упрощённая: фактический расход зависит от шага профилей, размеров помещения, подвесов и раскладки листов.</text></svg>