<svg xmlns="http://www.w3.org/2000/svg" width="1600" height="900" viewBox="0 0 1600 900">
    <rect width="1600" height="900" fill="#ffffff"/>
    <defs>
      <marker id="arr" markerWidth="8" markerHeight="8" refX="4" refY="4" orient="auto">
        <path d="M0,4 L8,0 L8,8 Z" fill="#f28c28"/>
      </marker>
      <marker id="arrS" markerWidth="8" markerHeight="8" refX="4" refY="4" orient="auto">
        <path d="M8,4 L0,0 L0,8 Z" fill="#f28c28"/>
      </marker>
    </defs>
    <rect x="24" y="24" width="1552" height="852" rx="24" fill="#ffffff" stroke="#d7e1ea"/><text x="64" y="84" fill="#18324a" font-family="Arial" font-size="42" font-weight="700">Общая схема потолочного каркаса</text><text x="64" y="122" fill="#66788a" font-family="Arial" font-size="24">Как работают ПП 60×27, ППН 28×27 и подвесы</text><rect x="90" y="180" width="1420" height="610" rx="20" fill="#f7fafc" stroke="#d7e1ea"/><rect x="260" y="260" width="860" height="360" rx="10" fill="none" stroke="#163a59" stroke-width="5" stroke-dasharray="0"/><rect x="260" y="260" width="860" height="360" rx="10" fill="none" stroke="#f28c28" stroke-width="10" opacity="0.2"/><line x1="360" y1="280" x2="360" y2="600" stroke="#163a59" stroke-width="8"/><line x1="480" y1="280" x2="480" y2="600" stroke="#163a59" stroke-width="8"/><line x1="600" y1="280" x2="600" y2="600" stroke="#163a59" stroke-width="8"/><line x1="720" y1="280" x2="720" y2="600" stroke="#163a59" stroke-width="8"/><line x1="840" y1="280" x2="840" y2="600" stroke="#163a59" stroke-width="8"/><line x1="960" y1="280" x2="960" y2="600" stroke="#163a59" stroke-width="8"/><line x1="320" y1="360" x2="1060" y2="360" stroke="#163a59" stroke-width="4" opacity="0.25"/><line x1="320" y1="480" x2="1060" y2="480" stroke="#163a59" stroke-width="4" opacity="0.25"/><line x1="320" y1="560" x2="1060" y2="560" stroke="#163a59" stroke-width="4" opacity="0.25"/><line x1="360" y1="250" x2="360" y2="320" stroke="#f28c28" stroke-width="3"/><circle cx="360" cy="250" r="6" fill="#f28c28"/><line x1="360" y1="430" x2="360" y2="500" stroke="#f28c28" stroke-width="3"/><circle cx="360" cy="430" r="6" fill="#f28c28"/><line x1="600" y1="250" x2="600" y2="320" stroke="#f28c28" stroke-width="3"/><circle cx="600" cy="250" r="6" fill="#f28c28"/><line x1="600" y1="430" x2="600" y2="500" stroke="#f28c28" stroke-width="3"/><circle cx="600" cy="430" r="6" fill="#f28c28"/><line x1="840" y1="250" x2="840" y2="320" stroke="#f28c28" stroke-width="3"/><circle cx="840" cy="250" r="6" fill="#f28c28"/><line x1="840" y1="430" x2="840" y2="500" stroke="#f28c28" stroke-width="3"/><circle cx="840" cy="430" r="6" fill="#f28c28"/><line x1="960" y1="250" x2="960" y2="320" stroke="#f28c28" stroke-width="3"/><circle cx="960" cy="250" r="6" fill="#f28c28"/><line x1="960" y1="430" x2="960" y2="500" stroke="#f28c28" stroke-width="3"/><circle cx="960" cy="430" r="6" fill="#f28c28"/><line x1="1040" y1="280" x2="1100" y2="292" stroke="#f28c28" stroke-width="3"/><text x="1120" y="300" fill="#18324a" font-size="22" font-family="Arial">ППН 28×27 по периметру</text><line x1="960" y1="410" x2="1100" y2="402" stroke="#f28c28" stroke-width="3"/><text x="1120" y="410" fill="#18324a" font-size="22" font-family="Arial">ПП 60×27 — основная сетка</text><line x1="840" y1="430" x2="1100" y2="512" stroke="#f28c28" stroke-width="3"/><text x="1120" y="520" fill="#18324a" font-size="22" font-family="Arial">Подвесы крепят ПП к перекрытию</text><text x="90" y="845" fill="#66788a" font-size="20" font-family="Arial">ППН образует контур по стенам, ПП 60×27 создаёт плоскость каркаса, а подвесы удерживают профили на заданной отметке.</text>
    </svg>