<svg xmlns="http://www.w3.org/2000/svg" width="1600" height="900" viewBox="0 0 1600 900" fill="none"><rect width="1600" height="900" fill="#ffffff"/><rect x="24" y="24" width="1552" height="852" rx="24" fill="#ffffff" stroke="#d9e3ec" stroke-width="2"/><text x="80" y="90" fill="#12324a" font-size="40" font-family="Arial" font-weight="700">Условная экономика: где пропадает экономия</text><text x="80" y="130" fill="#6b7785" font-size="22" font-family="Arial">Сравнение трёх сценариев на 100 м² перегородок</text><rect x="240" y="406.3157894736842" width="220" height="273.6842105263158" rx="18" fill="#4caf50" opacity="0.9"/><text x="275" y="388.3157894736842" fill="#203040" font-size="28" font-family="Arial" font-weight="700">26 000 ₽</text><text x="260" y="725" fill="#12324a" font-size="22" font-family="Arial" font-weight="700">0,6 мм</text><text x="260" y="753" fill="#6b7785" font-size="20" font-family="Arial">шаг 600 мм</text><rect x="640" y="332.63157894736844" width="220" height="347.36842105263156" rx="18" fill="#f28c28" opacity="0.9"/><text x="675" y="314.63157894736844" fill="#203040" font-size="28" font-family="Arial" font-weight="700">33 000 ₽</text><text x="660" y="725" fill="#12324a" font-size="22" font-family="Arial" font-weight="700">0,5 мм</text><text x="660" y="753" fill="#6b7785" font-size="20" font-family="Arial">шаг 400 мм</text><rect x="1040" y="301.05263157894734" width="220" height="378.94736842105266" rx="18" fill="#d9534f" opacity="0.9"/><text x="1075" y="283.05263157894734" fill="#203040" font-size="28" font-family="Arial" font-weight="700">36 000 ₽</text><text x="1060" y="725" fill="#12324a" font-size="22" font-family="Arial" font-weight="700">0,4 мм</text><text x="1060" y="753" fill="#6b7785" font-size="20" font-family="Arial">сдвоение / усиление</text><line x1="170" y1="574.7368421052631" x2="1420" y2="574.7368421052631" stroke="#d9e3ec" stroke-width="2"/><text x="90" y="580.7368421052631" fill="#6b7785" font-size="18" font-family="Arial">1 0000 ₽</text><line x1="170" y1="469.47368421052636" x2="1420" y2="469.47368421052636" stroke="#d9e3ec" stroke-width="2"/><text x="90" y="475.47368421052636" fill="#6b7785" font-size="18" font-family="Arial">2 0000 ₽</text><line x1="170" y1="364.2105263157895" x2="1420" y2="364.2105263157895" stroke="#d9e3ec" stroke-width="2"/><text x="90" y="370.2105263157895" fill="#6b7785" font-size="18" font-family="Arial">3 0000 ₽</text><line x1="170" y1="680" x2="1420" y2="680" stroke="#12324a" stroke-width="4"/><text x="80" y="810" fill="#6b7785" font-size="20" font-family="Arial">Даже упрощённый пример показывает: снижение толщины может привести к росту расхода и удорожанию всей конструкции.</text></svg>