<svg xmlns="http://www.w3.org/2000/svg" width="1600" height="900" viewBox="0 0 1600 900" fill="none"><rect width="1600" height="900" fill="#ffffff"/><rect x="24" y="24" width="1552" height="852" rx="24" fill="#ffffff" stroke="#d9e3ec" stroke-width="2"/>
<text x="80" y="90" fill="#12324a" font-size="40" font-family="Arial" font-weight="700">Перегородочная пара ПС + ПН</text>
<text x="80" y="130" fill="#6b7785" font-size="22" font-family="Arial">Как стоечный профиль работает с направляющим</text>
<rect x="90" y="190" width="1420" height="580" rx="24" fill="#f5f8fb" stroke="#d9e3ec"/>
<rect x="140" y="650" width="1320" height="40" rx="8" fill="#12324a"/>
<rect x="140" y="250" width="1320" height="40" rx="8" fill="#12324a"/>
<rect x="255" y="290" width="50" height="360" rx="10" fill="#ffffff" stroke="#2a6ea6" stroke-width="10"/><line x1="280" y1="330" x2="280" y2="610" stroke="#2a6ea6" stroke-width="4" stroke-dasharray="12 10"/><rect x="515" y="290" width="50" height="360" rx="10" fill="#ffffff" stroke="#2a6ea6" stroke-width="10"/><line x1="540" y1="330" x2="540" y2="610" stroke="#2a6ea6" stroke-width="4" stroke-dasharray="12 10"/><rect x="775" y="290" width="50" height="360" rx="10" fill="#ffffff" stroke="#2a6ea6" stroke-width="10"/><line x1="800" y1="330" x2="800" y2="610" stroke="#2a6ea6" stroke-width="4" stroke-dasharray="12 10"/><rect x="1035" y="290" width="50" height="360" rx="10" fill="#ffffff" stroke="#2a6ea6" stroke-width="10"/><line x1="1060" y1="330" x2="1060" y2="610" stroke="#2a6ea6" stroke-width="4" stroke-dasharray="12 10"/><rect x="1295" y="290" width="50" height="360" rx="10" fill="#ffffff" stroke="#2a6ea6" stroke-width="10"/><line x1="1320" y1="330" x2="1320" y2="610" stroke="#2a6ea6" stroke-width="4" stroke-dasharray="12 10"/><text x="150" y="235" fill="#ffffff" font-size="22" font-family="Arial" font-weight="700">ПН — направляющий профиль по потолку</text><text x="150" y="677" fill="#ffffff" font-size="22" font-family="Arial" font-weight="700">ПН — направляющий профиль по полу</text><text x="1180" y="330" fill="#f28c28" font-size="22" font-family="Arial" font-weight="700">Шаг стоек — обычно 600 мм</text><path d="M 1220 350 h 120" stroke="#f28c28" stroke-width="6" marker-start="url(#a)" marker-end="url(#a)"/><text x="235" y="725" fill="#12324a" font-size="20" font-family="Arial">ПС 50×50</text><text x="495" y="725" fill="#12324a" font-size="20" font-family="Arial">ПС 75×50</text><text x="755" y="725" fill="#12324a" font-size="20" font-family="Arial">ПС 50×50</text><text x="1015" y="725" fill="#12324a" font-size="20" font-family="Arial">ПС 100×50</text><text x="1275" y="725" fill="#12324a" font-size="20" font-family="Arial">ПС 75×50</text><defs><marker id="a" markerWidth="10" markerHeight="10" refX="4" refY="4" orient="auto"><path d="M0,4 L8,0 L8,8 Z" fill="#f28c28"/></marker></defs><text x="120" y="760" fill="#6b7785" font-size="20" font-family="Arial">Стоечные профили ПС устанавливаются внутрь направляющих ПН и формируют каркас перегородки.</text></svg>