<svg xmlns="http://www.w3.org/2000/svg" width="1600" height="900" viewBox="0 0 1600 900">
    <rect width="1600" height="900" fill="#ffffff"/>
    <defs>
      <marker id="arr" markerWidth="8" markerHeight="8" refX="4" refY="4" orient="auto">
        <path d="M0,4 L8,0 L8,8 Z" fill="#f28c28"/>
      </marker>
      <marker id="arrS" markerWidth="8" markerHeight="8" refX="4" refY="4" orient="auto">
        <path d="M8,4 L0,0 L0,8 Z" fill="#f28c28"/>
      </marker>
    </defs>
    <rect x="24" y="24" width="1552" height="852" rx="24" fill="#ffffff" stroke="#d7e1ea"/><text x="64" y="84" fill="#18324a" font-family="Arial" font-size="42" font-weight="700">Как ПП 60×27 входит в ППН 28×27</text><text x="64" y="122" fill="#66788a" font-family="Arial" font-size="24">Схема примыкания потолочного профиля к направляющему</text><rect x="90" y="180" width="1420" height="590" rx="20" fill="#f7fafc" stroke="#d7e1ea"/>
    <path d="M 220 360 H 258 M 482 360 H 520
             M 220 360 V 498 H 331.0 V 431.76 H 409.0 V 498 H 520 V 360"
          fill="none" stroke="#163a59" stroke-width="10" stroke-linecap="round" stroke-linejoin="round"/>
    <path d="M 1040 320 V 498 H 1280 V 320" fill="none" stroke="#163a59" stroke-width="10" stroke-linecap="round" stroke-linejoin="round"/><text x="300" y="565" fill="#18324a" font-size="34" font-family="Arial" font-weight="700">ПП 60×27</text><text x="1060" y="565" fill="#18324a" font-size="34" font-family="Arial" font-weight="700">ППН 28×27</text><line x1="560" y1="430" x2="975" y2="430" stroke="#f28c28" stroke-width="6" marker-end="url(#arr)"/><text x="620" y="398" fill="#f28c28" font-size="28" font-family="Arial" font-weight="700">Торец ПП заводится внутрь ППН</text><line x1="220" y1="498" x2="220" y2="655" stroke="#f28c28" stroke-width="2"/>
    <line x1="520" y1="498" x2="520" y2="655" stroke="#f28c28" stroke-width="2"/>
    <line x1="220" y1="655" x2="520" y2="655" stroke="#f28c28" stroke-width="2.5" marker-start="url(#arrS)" marker-end="url(#arr)"/>
    <text x="370.0" y="647" text-anchor="middle" fill="#f28c28" font-family="Arial" font-size="18" font-weight="700">60 мм</text><line x1="1040" y1="498" x2="1040" y2="655" stroke="#f28c28" stroke-width="2"/>
    <line x1="1280" y1="498" x2="1280" y2="655" stroke="#f28c28" stroke-width="2"/>
    <line x1="1040" y1="655" x2="1280" y2="655" stroke="#f28c28" stroke-width="2.5" marker-start="url(#arrS)" marker-end="url(#arr)"/>
    <text x="1160.0" y="647" text-anchor="middle" fill="#f28c28" font-family="Arial" font-size="18" font-weight="700">28 мм</text><line x1="1280" y1="320" x2="1320" y2="320" stroke="#f28c28" stroke-width="2"/>
    <line x1="1280" y1="498" x2="1320" y2="498" stroke="#f28c28" stroke-width="2"/>
    <line x1="1320" y1="320" x2="1320" y2="498" stroke="#f28c28" stroke-width="2.5" marker-start="url(#arrS)" marker-end="url(#arr)"/>
    <text x="1332" y="415.0" fill="#f28c28" font-family="Arial" font-size="18" font-weight="700">27 мм</text><text x="120" y="818" fill="#66788a" font-size="22" font-family="Arial">ППН крепится по периметру помещения, а ПП входит в него торцами и формирует рабочую плоскость потолочного каркаса.</text>
    </svg>