<svg xmlns="http://www.w3.org/2000/svg" width="1600" height="900" viewBox="0 0 1600 900">
    <rect width="1600" height="900" fill="#ffffff"/>
    <defs>
      <marker id="arr" markerWidth="8" markerHeight="8" refX="4" refY="4" orient="auto">
        <path d="M0,4 L8,0 L8,8 Z" fill="#f28c28"/>
      </marker>
      <marker id="arrS" markerWidth="8" markerHeight="8" refX="4" refY="4" orient="auto">
        <path d="M8,4 L0,0 L0,8 Z" fill="#f28c28"/>
      </marker>
    </defs>
    <rect x="24" y="24" width="1552" height="852" rx="24" fill="#ffffff" stroke="#d7e1ea"/><text x="64" y="84" fill="#18324a" font-family="Arial" font-size="42" font-weight="700">Разрезы ПП 60×27 и ППН 28×27</text><text x="64" y="122" fill="#66788a" font-family="Arial" font-size="24">Потолочная пара для каркасов из гипсокартона</text><rect x="110" y="180" width="640" height="600" rx="20" fill="#f7fafc" stroke="#d7e1ea"/><text x="134" y="220" fill="#18324a" font-family="Arial" font-size="22" font-weight="700">ПП 60×27</text><text x="134" y="248" fill="#66788a" font-family="Arial" font-size="16">Основной потолочный профиль</text>
    <path d="M 260 350 H 294 M 486 350 H 520
             M 260 350 V 476 H 356.2 V 415.52 H 423.8 V 476 H 520 V 350"
          fill="none" stroke="#163a59" stroke-width="10" stroke-linecap="round" stroke-linejoin="round"/>
    <line x1="260" y1="476" x2="260" y2="640" stroke="#f28c28" stroke-width="2"/>
    <line x1="520" y1="476" x2="520" y2="640" stroke="#f28c28" stroke-width="2"/>
    <line x1="260" y1="640" x2="520" y2="640" stroke="#f28c28" stroke-width="2.5" marker-start="url(#arrS)" marker-end="url(#arr)"/>
    <text x="390.0" y="632" text-anchor="middle" fill="#f28c28" font-family="Arial" font-size="18" font-weight="700">60 мм</text><line x1="520" y1="350" x2="560" y2="350" stroke="#f28c28" stroke-width="2"/>
    <line x1="520" y1="476" x2="560" y2="476" stroke="#f28c28" stroke-width="2"/>
    <line x1="560" y1="350" x2="560" y2="476" stroke="#f28c28" stroke-width="2.5" marker-start="url(#arrS)" marker-end="url(#arr)"/>
    <text x="572" y="419.0" fill="#f28c28" font-family="Arial" font-size="18" font-weight="700">27 мм</text><rect x="845" y="180" width="640" height="600" rx="20" fill="#f7fafc" stroke="#d7e1ea"/><text x="869" y="220" fill="#18324a" font-family="Arial" font-size="22" font-weight="700">ППН 28×27</text><text x="869" y="248" fill="#66788a" font-family="Arial" font-size="16">Направляющий профиль по периметру</text><path d="M 1035 350 V 476 H 1255 V 350" fill="none" stroke="#163a59" stroke-width="10" stroke-linecap="round" stroke-linejoin="round"/><line x1="1035" y1="476" x2="1035" y2="640" stroke="#f28c28" stroke-width="2"/>
    <line x1="1255" y1="476" x2="1255" y2="640" stroke="#f28c28" stroke-width="2"/>
    <line x1="1035" y1="640" x2="1255" y2="640" stroke="#f28c28" stroke-width="2.5" marker-start="url(#arrS)" marker-end="url(#arr)"/>
    <text x="1145.0" y="632" text-anchor="middle" fill="#f28c28" font-family="Arial" font-size="18" font-weight="700">28 мм</text><line x1="1255" y1="350" x2="1295" y2="350" stroke="#f28c28" stroke-width="2"/>
    <line x1="1255" y1="476" x2="1295" y2="476" stroke="#f28c28" stroke-width="2"/>
    <line x1="1295" y1="350" x2="1295" y2="476" stroke="#f28c28" stroke-width="2.5" marker-start="url(#arrS)" marker-end="url(#arr)"/>
    <text x="1307" y="419.0" fill="#f28c28" font-family="Arial" font-size="18" font-weight="700">27 мм</text><text x="80" y="842" fill="#66788a" font-size="22" font-family="Arial">ПП формирует основную плоскость каркаса, а ППН задаёт контур и принимает торцы потолочных профилей.</text>
    </svg>