<svg xmlns="http://www.w3.org/2000/svg" width="1600" height="1000" viewBox="0 0 1600 1000"><rect width="1600" height="1000" fill="#ffffff"/><defs><marker id="arr" markerWidth="8" markerHeight="8" refX="4" refY="4" orient="auto"><path d="M0,4 L8,0 L8,8 Z" fill="#f28c28"/></marker><marker id="arrS" markerWidth="8" markerHeight="8" refX="4" refY="4" orient="auto"><path d="M8,4 L0,0 L0,8 Z" fill="#f28c28"/></marker></defs><rect x="24" y="24" width="1552" height="952" rx="24" fill="#ffffff" stroke="#d7e1ea"/><text x="64" y="84" fill="#18324a" font-family="Arial" font-size="42" font-weight="700">Основные профили для гипсокартона</text><text x="64" y="122" fill="#66788a" font-family="Arial" font-size="24">Потолочные и перегородочные профили в разрезе</text><rect x="40" y="160" width="340" height="280" rx="20" fill="#f7fafc" stroke="#d7e1ea"/><text x="64" y="200" fill="#18324a" font-family="Arial" font-size="22" font-weight="700">ПП 60×27</text><text x="64" y="228" fill="#66788a" font-family="Arial" font-size="16">Основной потолочный профиль</text><path d="M 136 272 H 160 M 272 272 H 296 M 136 272 V 350 H 195.2 V 312.56 H 236.8 V 350 H 296 V 272" fill="none" stroke="#163a59" stroke-width="8" stroke-linecap="round" stroke-linejoin="round"/><line x1="136" y1="350" x2="136" y2="406" stroke="#f28c28" stroke-width="2"/><line x1="296" y1="350" x2="296" y2="406" stroke="#f28c28" stroke-width="2"/><line x1="136" y1="406" x2="296" y2="406" stroke="#f28c28" stroke-width="2.5" marker-start="url(#arrS)" marker-end="url(#arr)"/><text x="216.0" y="398" text-anchor="middle" fill="#f28c28" font-family="Arial" font-size="18" font-weight="700">60 мм</text><line x1="296" y1="272" x2="330" y2="272" stroke="#f28c28" stroke-width="2"/><line x1="296" y1="350" x2="330" y2="350" stroke="#f28c28" stroke-width="2"/><line x1="330" y1="272" x2="330" y2="350" stroke="#f28c28" stroke-width="2.5" marker-start="url(#arrS)" marker-end="url(#arr)"/><text x="340" y="317.0" fill="#f28c28" font-family="Arial" font-size="18" font-weight="700">27 мм</text><rect x="420" y="160" width="340" height="280" rx="20" fill="#f7fafc" stroke="#d7e1ea"/><text x="444" y="200" fill="#18324a" font-family="Arial" font-size="22" font-weight="700">ППН 28×27</text><text x="444" y="228" fill="#66788a" font-family="Arial" font-size="16">Направляющий для ПП 60×27</text><path d="M 535 274 V 350 H 655 V 274" fill="none" stroke="#163a59" stroke-width="8" stroke-linecap="round" stroke-linejoin="round"/><line x1="535" y1="350" x2="535" y2="406" stroke="#f28c28" stroke-width="2"/><line x1="655" y1="350" x2="655" y2="406" stroke="#f28c28" stroke-width="2"/><line x1="535" y1="406" x2="655" y2="406" stroke="#f28c28" stroke-width="2.5" marker-start="url(#arrS)" marker-end="url(#arr)"/><text x="595.0" y="398" text-anchor="middle" fill="#f28c28" font-family="Arial" font-size="18" font-weight="700">28 мм</text><line x1="655" y1="274" x2="705" y2="274" stroke="#f28c28" stroke-width="2"/><line x1="655" y1="350" x2="705" y2="350" stroke="#f28c28" stroke-width="2"/><line x1="705" y1="274" x2="705" y2="350" stroke="#f28c28" stroke-width="2.5" marker-start="url(#arrS)" marker-end="url(#arr)"/><text x="715" y="318.0" fill="#f28c28" font-family="Arial" font-size="18" font-weight="700">27 мм</text><rect x="800" y="160" width="340" height="280" rx="20" fill="#f7fafc" stroke="#d7e1ea"/><text x="824" y="200" fill="#18324a" font-family="Arial" font-size="22" font-weight="700">ПС 50×50</text><text x="824" y="228" fill="#66788a" font-family="Arial" font-size="16">Стоечный профиль</text><path d="M 892 264 H 910 M 984 264 H 1002 M 892 264 V 390 H 1002 V 264" fill="none" stroke="#163a59" stroke-width="8" stroke-linecap="round" stroke-linejoin="round"/><line x1="892" y1="390" x2="892" y2="406" stroke="#f28c28" stroke-width="2"/><line x1="1002" y1="390" x2="1002" y2="406" stroke="#f28c28" stroke-width="2"/><line x1="892" y1="406" x2="1002" y2="406" stroke="#f28c28" stroke-width="2.5" marker-start="url(#arrS)" marker-end="url(#arr)"/><text x="947.0" y="398" text-anchor="middle" fill="#f28c28" font-family="Arial" font-size="18" font-weight="700">50 мм</text><line x1="1002" y1="264" x2="1092" y2="264" stroke="#f28c28" stroke-width="2"/><line x1="1002" y1="390" x2="1092" y2="390" stroke="#f28c28" stroke-width="2"/><line x1="1092" y1="264" x2="1092" y2="390" stroke="#f28c28" stroke-width="2.5" marker-start="url(#arrS)" marker-end="url(#arr)"/><text x="1102" y="333.0" fill="#f28c28" font-family="Arial" font-size="18" font-weight="700">50 мм</text><rect x="1180" y="160" width="340" height="280" rx="20" fill="#f7fafc" stroke="#d7e1ea"/><text x="1204" y="200" fill="#18324a" font-family="Arial" font-size="22" font-weight="700">ПН 50×40</text><text x="1204" y="228" fill="#66788a" font-family="Arial" font-size="16">Направляющий под ПС 50×50</text><path d="M 1272 276 V 372 H 1382 V 276" fill="none" stroke="#163a59" stroke-width="8" stroke-linecap="round" stroke-linejoin="round"/><line x1="1272" y1="372" x2="1272" y2="406" stroke="#f28c28" stroke-width="2"/><line x1="1382" y1="372" x2="1382" y2="406" stroke="#f28c28" stroke-width="2"/><line x1="1272" y1="406" x2="1382" y2="406" stroke="#f28c28" stroke-width="2.5" marker-start="url(#arrS)" marker-end="url(#arr)"/><text x="1327.0" y="398" text-anchor="middle" fill="#f28c28" font-family="Arial" font-size="18" font-weight="700">50 мм</text><line x1="1382" y1="276" x2="1472" y2="276" stroke="#f28c28" stroke-width="2"/><line x1="1382" y1="372" x2="1472" y2="372" stroke="#f28c28" stroke-width="2"/><line x1="1472" y1="276" x2="1472" y2="372" stroke="#f28c28" stroke-width="2.5" marker-start="url(#arrS)" marker-end="url(#arr)"/><text x="1482" y="330.0" fill="#f28c28" font-family="Arial" font-size="18" font-weight="700">40 мм</text><rect x="40" y="520" width="340" height="280" rx="20" fill="#f7fafc" stroke="#d7e1ea"/><text x="64" y="560" fill="#18324a" font-family="Arial" font-size="22" font-weight="700">ПС 75×50</text><text x="64" y="588" fill="#66788a" font-family="Arial" font-size="16">Стоечный профиль</text><path d="M 132 624 H 150 M 264 624 H 282 M 132 624 V 750 H 282 V 624" fill="none" stroke="#163a59" stroke-width="8" stroke-linecap="round" stroke-linejoin="round"/><line x1="132" y1="750" x2="132" y2="766" stroke="#f28c28" stroke-width="2"/><line x1="282" y1="750" x2="282" y2="766" stroke="#f28c28" stroke-width="2"/><line x1="132" y1="766" x2="282" y2="766" stroke="#f28c28" stroke-width="2.5" marker-start="url(#arrS)" marker-end="url(#arr)"/><text x="207.0" y="758" text-anchor="middle" fill="#f28c28" font-family="Arial" font-size="18" font-weight="700">75 мм</text><line x1="282" y1="624" x2="332" y2="624" stroke="#f28c28" stroke-width="2"/><line x1="282" y1="750" x2="332" y2="750" stroke="#f28c28" stroke-width="2"/><line x1="332" y1="624" x2="332" y2="750" stroke="#f28c28" stroke-width="2.5" marker-start="url(#arrS)" marker-end="url(#arr)"/><text x="342" y="693.0" fill="#f28c28" font-family="Arial" font-size="18" font-weight="700">50 мм</text><rect x="420" y="520" width="340" height="280" rx="20" fill="#f7fafc" stroke="#d7e1ea"/><text x="444" y="560" fill="#18324a" font-family="Arial" font-size="22" font-weight="700">ПН 75×40</text><text x="444" y="588" fill="#66788a" font-family="Arial" font-size="16">Направляющий под ПС 75×50</text><path d="M 512 636 V 732 H 662 V 636" fill="none" stroke="#163a59" stroke-width="8" stroke-linecap="round" stroke-linejoin="round"/><line x1="512" y1="732" x2="512" y2="766" stroke="#f28c28" stroke-width="2"/><line x1="662" y1="732" x2="662" y2="766" stroke="#f28c28" stroke-width="2"/><line x1="512" y1="766" x2="662" y2="766" stroke="#f28c28" stroke-width="2.5" marker-start="url(#arrS)" marker-end="url(#arr)"/><text x="587.0" y="758" text-anchor="middle" fill="#f28c28" font-family="Arial" font-size="18" font-weight="700">75 мм</text><line x1="662" y1="636" x2="712" y2="636" stroke="#f28c28" stroke-width="2"/><line x1="662" y1="732" x2="712" y2="732" stroke="#f28c28" stroke-width="2"/><line x1="712" y1="636" x2="712" y2="732" stroke="#f28c28" stroke-width="2.5" marker-start="url(#arrS)" marker-end="url(#arr)"/><text x="722" y="690.0" fill="#f28c28" font-family="Arial" font-size="18" font-weight="700">40 мм</text><rect x="800" y="520" width="340" height="280" rx="20" fill="#f7fafc" stroke="#d7e1ea"/><text x="824" y="560" fill="#18324a" font-family="Arial" font-size="22" font-weight="700">ПС 100×50</text><text x="824" y="588" fill="#66788a" font-family="Arial" font-size="16">Стоечный профиль</text><path d="M 892 624 H 910 M 1054 624 H 1072 M 892 624 V 750 H 1072 V 624" fill="none" stroke="#163a59" stroke-width="8" stroke-linecap="round" stroke-linejoin="round"/><line x1="892" y1="750" x2="892" y2="766" stroke="#f28c28" stroke-width="2"/><line x1="1072" y1="750" x2="1072" y2="766" stroke="#f28c28" stroke-width="2"/><line x1="892" y1="766" x2="1072" y2="766" stroke="#f28c28" stroke-width="2.5" marker-start="url(#arrS)" marker-end="url(#arr)"/><text x="982.0" y="758" text-anchor="middle" fill="#f28c28" font-family="Arial" font-size="18" font-weight="700">100 мм</text><line x1="1072" y1="624" x2="1092" y2="624" stroke="#f28c28" stroke-width="2"/><line x1="1072" y1="750" x2="1092" y2="750" stroke="#f28c28" stroke-width="2"/><line x1="1092" y1="624" x2="1092" y2="750" stroke="#f28c28" stroke-width="2.5" marker-start="url(#arrS)" marker-end="url(#arr)"/><text x="1102" y="693.0" fill="#f28c28" font-family="Arial" font-size="18" font-weight="700">50 мм</text><rect x="1180" y="520" width="340" height="280" rx="20" fill="#f7fafc" stroke="#d7e1ea"/><text x="1204" y="560" fill="#18324a" font-family="Arial" font-size="22" font-weight="700">ПН 100×40</text><text x="1204" y="588" fill="#66788a" font-family="Arial" font-size="16">Направляющий под ПС 100×50</text><path d="M 1272 636 V 732 H 1452 V 636" fill="none" stroke="#163a59" stroke-width="8" stroke-linecap="round" stroke-linejoin="round"/><line x1="1272" y1="732" x2="1272" y2="766" stroke="#f28c28" stroke-width="2"/><line x1="1452" y1="732" x2="1452" y2="766" stroke="#f28c28" stroke-width="2"/><line x1="1272" y1="766" x2="1452" y2="766" stroke="#f28c28" stroke-width="2.5" marker-start="url(#arrS)" marker-end="url(#arr)"/><text x="1362.0" y="758" text-anchor="middle" fill="#f28c28" font-family="Arial" font-size="18" font-weight="700">100 мм</text><line x1="1452" y1="636" x2="1472" y2="636" stroke="#f28c28" stroke-width="2"/><line x1="1452" y1="732" x2="1472" y2="732" stroke="#f28c28" stroke-width="2"/><line x1="1472" y1="636" x2="1472" y2="732" stroke="#f28c28" stroke-width="2.5" marker-start="url(#arrS)" marker-end="url(#arr)"/><text x="1482" y="690.0" fill="#f28c28" font-family="Arial" font-size="18" font-weight="700">40 мм</text></svg>