<?xml version="1.0" encoding="UTF-8"?>
<svg xmlns="http://www.w3.org/2000/svg" width="840" height="660" viewBox="0 0 840 660" role="img" aria-labelledby="title desc">
  <title id="title">Сравнение толщины профиля 0,6, 0,5 и 0,4 миллиметра</title>
  <desc id="desc">Три одинаковых C-образных сечения профиля. Меняется только условно увеличенная толщина стенки.</desc>
  <defs>
    <marker id="arrowOrange" viewBox="0 0 10 10" refX="5" refY="5" markerWidth="6" markerHeight="6" orient="auto-start-reverse">
      <path d="M 0 0 L 10 5 L 0 10 z" fill="#F47A20"/>
    </marker>
    <filter id="shadow" x="-10%" y="-10%" width="120%" height="130%">
      <feDropShadow dx="0" dy="2" stdDeviation="3" flood-color="#0B2340" flood-opacity=".10"/>
    </filter>
  </defs>

  <rect width="840" height="660" rx="24" fill="#F7FAFC"/>
  <text x="42" y="54" font-family="Arial, 'DejaVu Sans', sans-serif" font-size="30" font-weight="700" fill="#0B2340">Один профиль — разная толщина металла</text>
  <text x="42" y="84" font-family="Arial, 'DejaVu Sans', sans-serif" font-size="17" fill="#50677C">Форма и габариты сечения одинаковы</text>

  <g transform="translate(32 108)">
    <rect width="776" height="166" rx="18" fill="#FFFFFF" stroke="#D8E2EA"/>
    <rect width="10" height="166" rx="5" fill="#F47A20"/>
    <g transform="translate(40 -10)">
      <path d="M112 45 V30 H32 V150 H112 V135" fill="none" stroke="#0B2340" stroke-width="10" stroke-linejoin="round" stroke-linecap="round"/>
    </g>
    <g transform="translate(220 35)">
      <rect x="0" y="20" width="135" height="24" rx="2" fill="#0B2340"/>
      <line x1="150" y1="20" x2="150" y2="44" stroke="#F47A20" stroke-width="3" marker-start="url(#arrowOrange)" marker-end="url(#arrowOrange)"/>
      <text x="170" y="41" font-family="Arial, 'DejaVu Sans', sans-serif" font-size="28" font-weight="700" fill="#0B2340">0,6 мм</text>
      <text x="0" y="84" font-family="Arial, 'DejaVu Sans', sans-serif" font-size="20" font-weight="700" fill="#0B2340">Рабочий ориентир</text>
      <text x="0" y="112" font-family="Arial, 'DejaVu Sans', sans-serif" font-size="16" fill="#50677C">Толщина стенки показана условно увеличенной</text>
    </g>
  </g>

  <g transform="translate(32 292)">
    <rect width="776" height="166" rx="18" fill="#FFFFFF" stroke="#D8E2EA"/>
    <rect width="10" height="166" rx="5" fill="#EBA15D"/>
    <g transform="translate(40 -10)">
      <path d="M112 45 V30 H32 V150 H112 V135" fill="none" stroke="#0B2340" stroke-width="8.3" stroke-linejoin="round" stroke-linecap="round"/>
    </g>
    <g transform="translate(220 35)">
      <rect x="0" y="22" width="135" height="20" rx="2" fill="#0B2340"/>
      <line x1="150" y1="22" x2="150" y2="42" stroke="#F47A20" stroke-width="3" marker-start="url(#arrowOrange)" marker-end="url(#arrowOrange)"/>
      <text x="170" y="41" font-family="Arial, 'DejaVu Sans', sans-serif" font-size="28" font-weight="700" fill="#0B2340">0,5 мм</text>
      <text x="0" y="84" font-family="Arial, 'DejaVu Sans', sans-serif" font-size="20" font-weight="700" fill="#0B2340">Компромисс</text>
      <text x="0" y="112" font-family="Arial, 'DejaVu Sans', sans-serif" font-size="16" fill="#50677C">Геометрия профиля остаётся той же</text>
    </g>
  </g>

  <g transform="translate(32 476)">
    <rect width="776" height="166" rx="18" fill="#FFFFFF" stroke="#D8E2EA"/>
    <rect width="10" height="166" rx="5" fill="#B9C7D2"/>
    <g transform="translate(40 -10)">
      <path d="M112 45 V30 H32 V150 H112 V135" fill="none" stroke="#0B2340" stroke-width="6.7" stroke-linejoin="round" stroke-linecap="round"/>
    </g>
    <g transform="translate(220 35)">
      <rect x="0" y="24" width="135" height="16" rx="2" fill="#0B2340"/>
      <line x1="150" y1="24" x2="150" y2="40" stroke="#F47A20" stroke-width="3" marker-start="url(#arrowOrange)" marker-end="url(#arrowOrange)"/>
      <text x="170" y="41" font-family="Arial, 'DejaVu Sans', sans-serif" font-size="28" font-weight="700" fill="#0B2340">0,4 мм</text>
      <text x="0" y="82" font-family="Arial, 'DejaVu Sans', sans-serif" font-size="20" font-weight="700" fill="#0B2340">Требует уменьшения шага</text>
      <text x="0" y="110" font-family="Arial, 'DejaVu Sans', sans-serif" font-size="20" font-weight="700" fill="#0B2340">или усиления</text>
    </g>
  </g>
</svg>
