<svg xmlns="http://www.w3.org/2000/svg" width="1600" height="900" viewBox="0 0 1600 900" fill="none"><rect width="1600" height="900" fill="#ffffff"/><rect x="24" y="24" width="1552" height="852" rx="24" fill="#ffffff" stroke="#d9e3ec" stroke-width="2"/><text x="80" y="90" fill="#12324a" font-size="40" font-family="Arial" font-weight="700">Сравнение толщин профиля</text><text x="80" y="130" fill="#6b7785" font-size="22" font-family="Arial">0,6 мм • 0,5 мм • 0,4 мм</text><rect x="150" y="190" width="360" height="520" rx="24" fill="#f5f8fb" stroke="#d9e3ec"/><text x="190" y="255" fill="#12324a" font-size="34" font-family="Arial" font-weight="700">0,6 мм</text><text x="190" y="290" fill="#6b7785" font-size="20" font-family="Arial">Рекомендуемый ориентир</text><circle cx="225" cy="330" r="10" fill="#4caf50"/><text x="245" y="337" fill="#203040" font-size="18" font-family="Arial">Толщина металла</text><rect x="210" y="380" width="240" height="28" rx="8" fill="#4caf50"/><rect x="210" y="430" width="240" height="140" rx="18" fill="#ffffff" stroke="#4caf50" stroke-width="8"/><text x="222" y="525" fill="#203040" font-size="18" font-family="Arial">Чем меньше толщина, тем ниже</text><text x="222" y="552" fill="#203040" font-size="18" font-family="Arial">жёсткость и выше риск усилений.</text><rect x="620" y="190" width="360" height="520" rx="24" fill="#f5f8fb" stroke="#d9e3ec"/><text x="660" y="255" fill="#12324a" font-size="34" font-family="Arial" font-weight="700">0,5 мм</text><text x="660" y="290" fill="#6b7785" font-size="20" font-family="Arial">Допустим с оговорками</text><circle cx="695" cy="330" r="10" fill="#f28c28"/><text x="715" y="337" fill="#203040" font-size="18" font-family="Arial">Толщина металла</text><rect x="680" y="380" width="240" height="22" rx="8" fill="#f28c28"/><rect x="680" y="430" width="240" height="140" rx="18" fill="#ffffff" stroke="#f28c28" stroke-width="8"/><text x="692" y="525" fill="#203040" font-size="18" font-family="Arial">Чем меньше толщина, тем ниже</text><text x="692" y="552" fill="#203040" font-size="18" font-family="Arial">жёсткость и выше риск усилений.</text><rect x="1090" y="190" width="360" height="520" rx="24" fill="#f5f8fb" stroke="#d9e3ec"/><text x="1130" y="255" fill="#12324a" font-size="34" font-family="Arial" font-weight="700">0,4 мм</text><text x="1130" y="290" fill="#6b7785" font-size="20" font-family="Arial">Требует осторожности</text><circle cx="1165" cy="330" r="10" fill="#d9534f"/><text x="1185" y="337" fill="#203040" font-size="18" font-family="Arial">Толщина металла</text><rect x="1150" y="380" width="240" height="16" rx="8" fill="#d9534f"/><rect x="1150" y="430" width="240" height="140" rx="18" fill="#ffffff" stroke="#d9534f" stroke-width="8"/><text x="1162" y="525" fill="#203040" font-size="18" font-family="Arial">Чем меньше толщина, тем ниже</text><text x="1162" y="552" fill="#203040" font-size="18" font-family="Arial">жёсткость и выше риск усилений.</text><text x="150" y="780" fill="#6b7785" font-size="20" font-family="Arial">Внешне профили могут быть похожи, но при монтаже разница в толщине влияет на жёсткость, крепёж и геометрию каркаса.</text></svg>